<svg width="820" height="494" viewBox="0 0 820 494" fill="none" xmlns="http://www.w3.org/2000/svg">
<g filter="url(#filter0_d_3190_1657)">
<path d="M84.076 5.3259C85.7147 14.885 87.6266 20.2108 92.4062 28.1313C95.0008 32.3646 97.0492 35.9151 96.9127 35.9151C96.7761 35.9151 94.5912 35.3689 92.1331 34.6861C88.1728 33.4571 87.8997 33.5936 89.1287 35.7786C89.8115 37.1442 93.7718 40.8312 98.0052 44.1087L105.516 49.9807L102.102 54.214C85.7147 74.1517 78.4771 93.6796 77.248 121.947L76.5652 139.017L63.8651 151.99C50.8919 165.237 42.2886 177.254 34.5047 192.958L30.1348 201.834L42.1521 190.09C67.8254 165.373 91.5868 154.039 117.806 154.175C133.784 154.175 143.616 157.589 153.039 166.329C156.589 169.606 164.237 175.478 169.972 179.302C181.443 186.949 190.456 196.235 197.831 208.253C204.659 219.45 207.936 230.102 208.892 244.031L209.711 256.321L212.989 248.811C220.5 231.877 223.231 219.314 223.914 198.42C224.46 183.809 224.05 175.615 222.548 167.285L220.363 155.951L225.006 148.576C227.601 144.616 231.288 136.423 233.336 130.687C236.477 120.991 236.887 118.533 236.341 104.195C235.931 94.3624 234.838 86.1688 233.473 82.2086C231.971 77.9753 231.561 74.6979 232.38 71.9667C232.927 69.7818 232.927 65.8216 232.107 63.2269L230.878 58.4474L228.42 64.8656C227.054 68.5527 223.504 74.2882 220.636 77.8387C217.632 81.5258 213.535 86.7151 211.35 89.7194L207.39 94.9086L216.676 87.9441C221.865 83.9839 226.645 81.1162 227.601 81.3893C231.424 82.6183 233.746 107.199 231.151 118.943C227.737 133.418 217.632 147.211 205.341 153.902C198.24 157.726 198.24 157.726 185.677 156.087C170.382 154.039 153.039 149.259 142.66 143.933C125.317 135.194 113.436 119.353 111.525 102.829C110.022 89.3097 116.577 71.2839 126.41 62.1345L129.551 59.1302L142.524 63.3635C160.686 69.3721 178.439 77.9753 189.227 86.1688L198.513 93.2699L195.373 87.5344C190.866 79.4775 178.712 66.6409 169.836 60.4957C165.602 57.7646 153.312 50.8001 142.66 44.928C117.26 31.4087 105.106 22.942 93.089 10.242L83.2567 9.42647e-05L84.076 5.3259Z" fill="white"/>
</g>
<g filter="url(#filter1_d_3190_1657)">
<path d="M199.745 22.6681C199.745 23.0778 200.974 25.9455 202.476 29.223C203.979 32.5004 205.208 37.1434 205.208 39.6015V43.8348L199.745 41.2402C186.636 34.9584 160.962 31.5445 142.936 33.866L135.152 34.8219L150.311 42.7423C180.354 58.31 194.283 71.5563 201.247 90.8111C203.296 96.6831 204.661 97.3659 205.89 93.1326C206.437 91.6305 210.534 84.8025 215.04 78.1111C221.595 68.4154 223.507 64.4552 224.053 59.266C224.872 50.9359 221.322 42.6058 213.265 33.866C207.802 27.9939 199.745 21.3025 199.745 22.6681Z" fill="white"/>
</g>
<g filter="url(#filter2_d_3190_1657)">
<path d="M145.118 85.759C157.136 93.2698 157.272 93.4063 152.083 92.4504L147.44 91.631L148.396 96.1375C149.488 102.01 153.995 106.653 160.277 108.428C165.193 109.93 166.968 109.657 175.435 106.243C176.937 105.697 177.893 106.243 178.576 108.291C179.122 109.93 179.805 110.886 180.078 110.613C181.17 109.52 176.527 99.688 173.386 96.2741C169.426 92.0407 160.413 87.3977 148.669 83.8472C143.616 82.345 138.973 80.9794 138.427 80.9794C138.017 80.9794 141.022 83.1644 145.118 85.759Z" fill="white"/>
</g>
<g filter="url(#filter3_d_3190_1657)">
<path d="M223.231 93.2693C218.452 96.137 213.399 103.375 213.399 107.198C213.399 110.612 219.134 110.339 222.275 106.925C223.641 105.423 224.87 102.009 225.007 99.4145C225.143 96.8198 226.099 93.679 227.055 92.5865C229.24 89.8553 228.694 89.9919 223.231 93.2693Z" fill="white"/>
</g>
<g filter="url(#filter4_d_3190_1657)">
<path d="M199.741 122.084C198.102 125.361 195.507 129.731 194.142 131.643C191.683 135.193 191.683 135.33 195.097 139.836C197.146 142.431 199.467 146.255 200.423 148.439L202.199 152.536L204.657 147.757C207.934 141.748 208.071 125.771 204.93 120.035L202.745 115.938L199.741 122.084Z" fill="white"/>
</g>
<g filter="url(#filter5_d_3190_1657)">
<path d="M93.2246 168.924C69.8728 175.889 46.2479 192.549 29.1778 213.852C23.7154 220.817 21.9401 224.504 19.6186 233.38C13.4734 257.551 8.28413 301.66 6.50885 345.222C6.09917 355.737 5.41637 366.116 5.14325 368.164L4.46045 371.988L11.0153 368.164C23.1692 361.199 50.2081 342.9 68.3706 329.245C90.3568 312.721 116.303 288.004 128.184 272.299C138.563 258.37 148.395 239.525 151.536 227.098C154.813 213.989 154.54 196.782 150.58 187.906C142.113 168.241 119.854 160.867 93.2246 168.924Z" fill="white"/>
</g>
<g filter="url(#filter6_d_3190_1657)">
<path d="M166.559 191.866C168.334 201.289 167.515 218.905 164.92 228.464C159.185 250.587 146.894 270.115 124.772 292.92C103.059 315.452 77.2488 334.707 37.6463 358.059L20.8494 367.891L18.9376 374.992C17.8451 378.952 13.4752 393.974 9.24181 408.586C5.145 423.197 1.86756 435.624 2.00412 436.171C2.82348 438.629 15.1139 430.845 24.5365 421.968L34.3689 412.682L33.0033 417.599C32.1839 420.33 31.7742 422.924 32.0474 423.197C32.457 423.471 37.1001 421.559 42.699 418.828C60.725 410.224 76.7025 390.15 84.8961 365.979C87.0811 359.561 87.9005 358.742 96.0941 354.508C105.244 349.865 107.702 349.729 111.525 353.962C113.71 356.284 113.574 356.557 110.023 358.059C107.975 359.015 104.015 361.473 101.42 363.658L96.6403 367.618L134.877 367.754C162.326 367.754 172.568 367.345 171.066 366.252C169.427 365.16 169.837 365.023 172.704 365.57C174.616 365.979 177.347 366.799 178.85 367.345C183.629 369.257 177.347 361.882 170.383 357.513C164.238 353.689 163.009 353.416 152.084 353.689L140.34 354.099L134.194 344.949C130.371 339.35 128.732 335.663 129.688 335.39C135.697 333.342 159.595 313.814 174.48 298.929C197.012 276.396 199.607 272.573 201.519 259.053C204.659 237.477 195.92 213.579 178.44 196.1C172.977 190.637 167.788 186.131 166.969 186.131C166.013 186.131 165.876 188.043 166.559 191.866Z" fill="white"/>
</g>
<rect x="580.879" y="166.19" width="159.74" height="268.99" stroke="#D9D9D9"/>
<rect x="560.789" y="189.035" width="199.926" height="227.453" stroke="#D9D9D9"/>
<line x1="532.158" y1="208.805" x2="793.361" y2="208.805" stroke="#D9D9D9"/>
<line x1="520.103" y1="229.572" x2="801.399" y2="229.572" stroke="#D9D9D9"/>
<line x1="510.056" y1="250.341" x2="811.445" y2="250.341" stroke="#D9D9D9"/>
<line x1="504.029" y1="271.11" x2="815.464" y2="271.11" stroke="#D9D9D9"/>
<line x1="498" y1="291.879" x2="819.481" y2="291.879" stroke="#D9D9D9"/>
<line x1="504.029" y1="312.646" x2="815.464" y2="312.646" stroke="#D9D9D9"/>
<line x1="510.056" y1="333.416" x2="811.445" y2="333.416" stroke="#D9D9D9"/>
<line x1="516.083" y1="354.183" x2="817.472" y2="354.183" stroke="#D9D9D9"/>
<line x1="520.103" y1="374.953" x2="811.445" y2="374.953" stroke="#D9D9D9"/>
<line x1="520.103" y1="395.72" x2="801.399" y2="395.72" stroke="#D9D9D9"/>
<line x1="599.973" y1="456.45" x2="599.973" y2="144.922" stroke="#D9D9D9"/>
<line x1="620.065" y1="468.911" x2="620.065" y2="136.615" stroke="#D9D9D9"/>
<line x1="640.159" y1="481.371" x2="640.159" y2="128.307" stroke="#D9D9D9"/>
<line x1="660.25" y1="493.833" x2="660.25" y2="120" stroke="#D9D9D9"/>
<line x1="680.344" y1="481.371" x2="680.344" y2="128.307" stroke="#D9D9D9"/>
<line x1="700.434" y1="468.911" x2="700.434" y2="136.615" stroke="#D9D9D9"/>
<line x1="720.528" y1="473.064" x2="720.528" y2="140.768" stroke="#D9D9D9"/>
<g filter="url(#filter7_d_3190_1657)">
<path d="M335.239 307.091C335.239 317.83 333.3 327.11 329.422 334.932C325.544 342.754 320.224 348.786 313.463 353.028C306.702 357.271 298.979 359.392 290.295 359.392C281.612 359.392 273.889 357.271 267.128 353.028C260.366 348.786 255.047 342.754 251.169 334.932C247.291 327.11 245.352 317.83 245.352 307.091C245.352 296.352 247.291 287.072 251.169 279.25C255.047 271.428 260.366 265.396 267.128 261.153C273.889 256.911 281.612 254.79 290.295 254.79C298.979 254.79 306.702 256.911 313.463 261.153C320.224 265.396 325.544 271.428 329.422 279.25C333.3 287.072 335.239 296.352 335.239 307.091ZM323.307 307.091C323.307 298.275 321.832 290.834 318.882 284.768C315.965 278.703 312.005 274.113 307 270.997C302.028 267.882 296.46 266.324 290.295 266.324C284.131 266.324 278.546 267.882 273.541 270.997C268.57 274.113 264.609 278.703 261.659 284.768C258.742 290.834 257.284 298.275 257.284 307.091C257.284 315.907 258.742 323.348 261.659 329.413C264.609 335.479 268.57 340.069 273.541 343.185C278.546 346.3 284.131 347.858 290.295 347.858C296.46 347.858 302.028 346.3 307 343.185C312.005 340.069 315.965 335.479 318.882 329.413C321.832 323.348 323.307 315.907 323.307 307.091ZM366.112 256.182V358H354.379V256.182H366.112ZM387.602 358V281.636H399.335V358H387.602ZM393.568 268.909C391.281 268.909 389.309 268.13 387.652 266.572C386.028 265.015 385.216 263.142 385.216 260.955C385.216 258.767 386.028 256.894 387.652 255.337C389.309 253.779 391.281 253 393.568 253C395.855 253 397.81 253.779 399.434 255.337C401.092 256.894 401.92 258.767 401.92 260.955C401.92 263.142 401.092 265.015 399.434 266.572C397.81 268.13 395.855 268.909 393.568 268.909ZM432.558 312.062V358H420.825V281.636H432.16V293.568H433.154C434.944 289.69 437.662 286.575 441.308 284.222C444.953 281.835 449.66 280.642 455.427 280.642C460.597 280.642 465.121 281.703 468.999 283.824C472.877 285.912 475.893 289.094 478.048 293.369C480.202 297.612 481.279 302.981 481.279 309.477V358H469.546V310.273C469.546 304.274 467.988 299.6 464.873 296.253C461.757 292.872 457.482 291.182 452.046 291.182C448.301 291.182 444.953 291.994 442.004 293.618C439.087 295.242 436.783 297.612 435.093 300.727C433.403 303.843 432.558 307.621 432.558 312.062ZM511.469 281.636L529.765 312.858L548.06 281.636H561.583L536.924 319.818L561.583 358H548.06L529.765 328.369L511.469 358H497.946L522.208 319.818L497.946 281.636H511.469Z" fill="white"/>
<path d="M579.915 358V256.182H614.319C622.273 256.182 628.803 257.541 633.907 260.259C639.011 262.943 642.79 266.639 645.242 271.345C647.695 276.052 648.921 281.404 648.921 287.403C648.921 293.402 647.695 298.722 645.242 303.362C642.79 308.002 639.028 311.648 633.957 314.3C628.886 316.918 622.406 318.227 614.518 318.227H586.677V307.091H614.12C619.556 307.091 623.931 306.295 627.245 304.705C630.593 303.114 633.012 300.86 634.504 297.943C636.028 294.993 636.79 291.48 636.79 287.403C636.79 283.327 636.028 279.764 634.504 276.714C632.979 273.665 630.543 271.312 627.195 269.655C623.848 267.964 619.423 267.119 613.921 267.119H592.245V358H579.915ZM627.842 312.261L652.898 358H638.58L613.921 312.261H627.842ZM673.642 358H660.716L698.103 256.182H710.83L748.216 358H735.29L704.864 272.29H704.069L673.642 358ZM678.415 318.227H730.517V329.165H678.415V318.227Z" fill="#FFB703"/>
</g>
<g filter="url(#filter8_d_3190_1657)">
<path d="M271.545 458H265.636L282.727 411.455H288.545L305.636 458H299.727L285.818 418.818H285.455L271.545 458ZM273.727 439.818H297.545V444.818H273.727V439.818ZM325.341 458.727C322.432 458.727 319.864 457.992 317.636 456.523C315.409 455.038 313.667 452.947 312.409 450.25C311.152 447.538 310.523 444.333 310.523 440.636C310.523 436.97 311.152 433.788 312.409 431.091C313.667 428.394 315.417 426.311 317.659 424.841C319.902 423.371 322.492 422.636 325.432 422.636C327.705 422.636 329.5 423.015 330.818 423.773C332.152 424.515 333.167 425.364 333.864 426.318C334.576 427.258 335.129 428.03 335.523 428.636H335.977V411.455H341.341V458H336.159V452.636H335.523C335.129 453.273 334.568 454.076 333.841 455.045C333.114 456 332.076 456.856 330.727 457.614C329.379 458.356 327.583 458.727 325.341 458.727ZM326.068 453.909C328.22 453.909 330.038 453.348 331.523 452.227C333.008 451.091 334.136 449.523 334.909 447.523C335.682 445.508 336.068 443.182 336.068 440.545C336.068 437.939 335.689 435.659 334.932 433.705C334.174 431.735 333.053 430.205 331.568 429.114C330.083 428.008 328.25 427.455 326.068 427.455C323.795 427.455 321.902 428.038 320.386 429.205C318.886 430.356 317.758 431.924 317 433.909C316.258 435.879 315.886 438.091 315.886 440.545C315.886 443.03 316.265 445.288 317.023 447.318C317.795 449.333 318.932 450.939 320.432 452.136C321.947 453.318 323.826 453.909 326.068 453.909ZM351.909 458V423.091H357.091V428.545H357.545C358.273 426.682 359.447 425.235 361.068 424.205C362.689 423.159 364.636 422.636 366.909 422.636C369.212 422.636 371.129 423.159 372.659 424.205C374.205 425.235 375.409 426.682 376.273 428.545H376.636C377.53 426.742 378.871 425.311 380.659 424.25C382.447 423.174 384.591 422.636 387.091 422.636C390.212 422.636 392.765 423.614 394.75 425.568C396.735 427.508 397.727 430.53 397.727 434.636V458H392.364V434.636C392.364 432.061 391.659 430.22 390.25 429.114C388.841 428.008 387.182 427.455 385.273 427.455C382.818 427.455 380.917 428.197 379.568 429.682C378.22 431.152 377.545 433.015 377.545 435.273V458H372.091V434.091C372.091 432.106 371.447 430.508 370.159 429.295C368.871 428.068 367.212 427.455 365.182 427.455C363.788 427.455 362.485 427.826 361.273 428.568C360.076 429.311 359.106 430.341 358.364 431.659C357.636 432.962 357.273 434.47 357.273 436.182V458H351.909ZM407.534 458V423.091H412.898V458H407.534ZM410.261 417.273C409.216 417.273 408.314 416.917 407.557 416.205C406.814 415.492 406.443 414.636 406.443 413.636C406.443 412.636 406.814 411.78 407.557 411.068C408.314 410.356 409.216 410 410.261 410C411.307 410 412.201 410.356 412.943 411.068C413.701 411.78 414.08 412.636 414.08 413.636C414.08 414.636 413.701 415.492 412.943 416.205C412.201 416.917 411.307 417.273 410.261 417.273ZM428.085 437V458H422.722V423.091H427.903V428.545H428.358C429.176 426.773 430.419 425.348 432.085 424.273C433.752 423.182 435.903 422.636 438.54 422.636C440.903 422.636 442.972 423.121 444.744 424.091C446.517 425.045 447.896 426.5 448.881 428.455C449.866 430.394 450.358 432.848 450.358 435.818V458H444.994V436.182C444.994 433.439 444.282 431.303 442.858 429.773C441.434 428.227 439.479 427.455 436.994 427.455C435.282 427.455 433.752 427.826 432.403 428.568C431.07 429.311 430.017 430.394 429.244 431.818C428.472 433.242 428.085 434.97 428.085 437ZM491.432 411.455H497.068V442.273C497.068 445.455 496.318 448.295 494.818 450.795C493.333 453.28 491.235 455.242 488.523 456.682C485.811 458.106 482.629 458.818 478.977 458.818C475.326 458.818 472.144 458.106 469.432 456.682C466.72 455.242 464.614 453.28 463.114 450.795C461.629 448.295 460.886 445.455 460.886 442.273V411.455H466.523V441.818C466.523 444.091 467.023 446.114 468.023 447.886C469.023 449.644 470.447 451.03 472.295 452.045C474.159 453.045 476.386 453.545 478.977 453.545C481.568 453.545 483.795 453.045 485.659 452.045C487.523 451.03 488.947 449.644 489.932 447.886C490.932 446.114 491.432 444.091 491.432 441.818V411.455ZM513.96 411.455V458H508.324V411.455H513.96Z" fill="#FFB703"/>
</g>
<defs>
<filter id="filter0_d_3190_1657" x="28.1348" y="0.00012207" width="210.41" height="260.321" filterUnits="userSpaceOnUse" color-interpolation-filters="sRGB">
<feFlood flood-opacity="0" result="BackgroundImageFix"/>
<feColorMatrix in="SourceAlpha" type="matrix" values="0 0 0 0 0 0 0 0 0 0 0 0 0 0 0 0 0 0 127 0" result="hardAlpha"/>
<feOffset dy="2"/>
<feGaussianBlur stdDeviation="1"/>
<feComposite in2="hardAlpha" operator="out"/>
<feColorMatrix type="matrix" values="0 0 0 0 0 0 0 0 0 0 0 0 0 0 0 0 0 0 0.25 0"/>
<feBlend mode="normal" in2="BackgroundImageFix" result="effect1_dropShadow_3190_1657"/>
<feBlend mode="normal" in="SourceGraphic" in2="effect1_dropShadow_3190_1657" result="shape"/>
</filter>
<filter id="filter1_d_3190_1657" x="133.152" y="22.4888" width="93.0156" height="77.3564" filterUnits="userSpaceOnUse" color-interpolation-filters="sRGB">
<feFlood flood-opacity="0" result="BackgroundImageFix"/>
<feColorMatrix in="SourceAlpha" type="matrix" values="0 0 0 0 0 0 0 0 0 0 0 0 0 0 0 0 0 0 127 0" result="hardAlpha"/>
<feOffset dy="2"/>
<feGaussianBlur stdDeviation="1"/>
<feComposite in2="hardAlpha" operator="out"/>
<feColorMatrix type="matrix" values="0 0 0 0 0 0 0 0 0 0 0 0 0 0 0 0 0 0 0.25 0"/>
<feBlend mode="normal" in2="BackgroundImageFix" result="effect1_dropShadow_3190_1657"/>
<feBlend mode="normal" in="SourceGraphic" in2="effect1_dropShadow_3190_1657" result="shape"/>
</filter>
<filter id="filter2_d_3190_1657" x="136.39" y="80.9795" width="45.8511" height="33.6796" filterUnits="userSpaceOnUse" color-interpolation-filters="sRGB">
<feFlood flood-opacity="0" result="BackgroundImageFix"/>
<feColorMatrix in="SourceAlpha" type="matrix" values="0 0 0 0 0 0 0 0 0 0 0 0 0 0 0 0 0 0 127 0" result="hardAlpha"/>
<feOffset dy="2"/>
<feGaussianBlur stdDeviation="1"/>
<feComposite in2="hardAlpha" operator="out"/>
<feColorMatrix type="matrix" values="0 0 0 0 0 0 0 0 0 0 0 0 0 0 0 0 0 0 0.25 0"/>
<feBlend mode="normal" in2="BackgroundImageFix" result="effect1_dropShadow_3190_1657"/>
<feBlend mode="normal" in="SourceGraphic" in2="effect1_dropShadow_3190_1657" result="shape"/>
</filter>
<filter id="filter3_d_3190_1657" x="211.399" y="90.6642" width="18.853" height="22.9622" filterUnits="userSpaceOnUse" color-interpolation-filters="sRGB">
<feFlood flood-opacity="0" result="BackgroundImageFix"/>
<feColorMatrix in="SourceAlpha" type="matrix" values="0 0 0 0 0 0 0 0 0 0 0 0 0 0 0 0 0 0 127 0" result="hardAlpha"/>
<feOffset dy="2"/>
<feGaussianBlur stdDeviation="1"/>
<feComposite in2="hardAlpha" operator="out"/>
<feColorMatrix type="matrix" values="0 0 0 0 0 0 0 0 0 0 0 0 0 0 0 0 0 0 0.25 0"/>
<feBlend mode="normal" in2="BackgroundImageFix" result="effect1_dropShadow_3190_1657"/>
<feBlend mode="normal" in="SourceGraphic" in2="effect1_dropShadow_3190_1657" result="shape"/>
</filter>
<filter id="filter4_d_3190_1657" x="190.403" y="115.938" width="18.7998" height="40.5978" filterUnits="userSpaceOnUse" color-interpolation-filters="sRGB">
<feFlood flood-opacity="0" result="BackgroundImageFix"/>
<feColorMatrix in="SourceAlpha" type="matrix" values="0 0 0 0 0 0 0 0 0 0 0 0 0 0 0 0 0 0 127 0" result="hardAlpha"/>
<feOffset dy="2"/>
<feGaussianBlur stdDeviation="1"/>
<feComposite in2="hardAlpha" operator="out"/>
<feColorMatrix type="matrix" values="0 0 0 0 0 0 0 0 0 0 0 0 0 0 0 0 0 0 0.25 0"/>
<feBlend mode="normal" in2="BackgroundImageFix" result="effect1_dropShadow_3190_1657"/>
<feBlend mode="normal" in="SourceGraphic" in2="effect1_dropShadow_3190_1657" result="shape"/>
</filter>
<filter id="filter5_d_3190_1657" x="2.46045" y="165.711" width="153.331" height="210.277" filterUnits="userSpaceOnUse" color-interpolation-filters="sRGB">
<feFlood flood-opacity="0" result="BackgroundImageFix"/>
<feColorMatrix in="SourceAlpha" type="matrix" values="0 0 0 0 0 0 0 0 0 0 0 0 0 0 0 0 0 0 127 0" result="hardAlpha"/>
<feOffset dy="2"/>
<feGaussianBlur stdDeviation="1"/>
<feComposite in2="hardAlpha" operator="out"/>
<feColorMatrix type="matrix" values="0 0 0 0 0 0 0 0 0 0 0 0 0 0 0 0 0 0 0.25 0"/>
<feBlend mode="normal" in2="BackgroundImageFix" result="effect1_dropShadow_3190_1657"/>
<feBlend mode="normal" in="SourceGraphic" in2="effect1_dropShadow_3190_1657" result="shape"/>
</filter>
<filter id="filter6_d_3190_1657" x="0" y="186.131" width="204.149" height="254.499" filterUnits="userSpaceOnUse" color-interpolation-filters="sRGB">
<feFlood flood-opacity="0" result="BackgroundImageFix"/>
<feColorMatrix in="SourceAlpha" type="matrix" values="0 0 0 0 0 0 0 0 0 0 0 0 0 0 0 0 0 0 127 0" result="hardAlpha"/>
<feOffset dy="2"/>
<feGaussianBlur stdDeviation="1"/>
<feComposite in2="hardAlpha" operator="out"/>
<feColorMatrix type="matrix" values="0 0 0 0 0 0 0 0 0 0 0 0 0 0 0 0 0 0 0.25 0"/>
<feBlend mode="normal" in2="BackgroundImageFix" result="effect1_dropShadow_3190_1657"/>
<feBlend mode="normal" in="SourceGraphic" in2="effect1_dropShadow_3190_1657" result="shape"/>
</filter>
<filter id="filter7_d_3190_1657" x="241.352" y="253" width="510.864" height="114.392" filterUnits="userSpaceOnUse" color-interpolation-filters="sRGB">
<feFlood flood-opacity="0" result="BackgroundImageFix"/>
<feColorMatrix in="SourceAlpha" type="matrix" values="0 0 0 0 0 0 0 0 0 0 0 0 0 0 0 0 0 0 127 0" result="hardAlpha"/>
<feOffset dy="4"/>
<feGaussianBlur stdDeviation="2"/>
<feComposite in2="hardAlpha" operator="out"/>
<feColorMatrix type="matrix" values="0 0 0 0 0 0 0 0 0 0 0 0 0 0 0 0 0 0 0.25 0"/>
<feBlend mode="normal" in2="BackgroundImageFix" result="effect1_dropShadow_3190_1657"/>
<feBlend mode="normal" in="SourceGraphic" in2="effect1_dropShadow_3190_1657" result="shape"/>
</filter>
<filter id="filter8_d_3190_1657" x="263.636" y="410" width="252.324" height="52.8182" filterUnits="userSpaceOnUse" color-interpolation-filters="sRGB">
<feFlood flood-opacity="0" result="BackgroundImageFix"/>
<feColorMatrix in="SourceAlpha" type="matrix" values="0 0 0 0 0 0 0 0 0 0 0 0 0 0 0 0 0 0 127 0" result="hardAlpha"/>
<feOffset dy="2"/>
<feGaussianBlur stdDeviation="1"/>
<feComposite in2="hardAlpha" operator="out"/>
<feColorMatrix type="matrix" values="0 0 0 0 0 0 0 0 0 0 0 0 0 0 0 0 0 0 0.25 0"/>
<feBlend mode="normal" in2="BackgroundImageFix" result="effect1_dropShadow_3190_1657"/>
<feBlend mode="normal" in="SourceGraphic" in2="effect1_dropShadow_3190_1657" result="shape"/>
</filter>
</defs>
</svg>
